# xmcd
#
# Track frame offsets: 
#        150
#        6361
#        16292
#        31011
#        40745
#        52629
#        57191
#        70203
#        83485
#        87950
#        103865
#        116839
#        121155
#        137993
#        160349
#        164801
#        184685
#        193685
#        210946
#        229144
#        245993
#        261689
#        264243
#        279282
#        291496
#
# Disc length: 4313 seconds
#
# Revision: 0
# Processed by: cddbd v1.5.2PL0 Copyright (c) Steve Scherf et al.
# Submitted via: ExactAudioCopy v0.95b3
#
DISCID=6610d719
DTITLE=Flo and Eddie And The Turtles  - The History of - Disc 1  FLAC
DYEAR=1900
DGENRE=
TTITLE0=The Westchester High School Alma Mater
TTITLE1=Silver Bullet
TTITLE2=I Get Out Of Breath
TTITLE3=Outside Chance
TTITLE4=Grim Reaper Of Love
TTITLE5=Battle Of The Bands Radio Commercial
TTITLE6=Lady-O
TTITLE7=Goodbye Surprise
TTITLE8=Pepsi Commercial
TTITLE9=Medley 1969
TTITLE10=Happy Together (BBC)
TTITLE11=Turtle Soup Radio Commercia
TTITLE12=There You Sit Lonely
TTITLE13=We Ain't Gonna Party No More
TTITLE14=Flo and Eddie Theme
TTITLE15=Feel Older Now
TTITLE16=Nikki Hoi
TTITLE17=I've Been Born Again
TTITLE18=The Best Part Of Breaking Up (special edit)
TTITLE19=Another Pop Star's Life
TTITLE20=Just Another Town
TTITLE21=Interview
TTITLE22=Afterglow
TTITLE23=You're A Lady
TTITLE24=Marmendy Mill
EXTD=
EXTT0=
EXTT1=
EXTT2=
EXTT3=
EXTT4=
EXTT5=
EXTT6=
EXTT7=
EXTT8=
EXTT9=
EXTT10=
EXTT11=
EXTT12=
EXTT13=
EXTT14=
EXTT15=
EXTT16=
EXTT17=
EXTT18=
EXTT19=
EXTT20=
EXTT21=
EXTT22=
EXTT23=
EXTT24=
PLAYORDER=
